<svg width="400" height="300" viewBox="0 0 400 300" fill="none" xmlns="http://www.w3.org/2000/svg">
  <!-- Background -->
  <rect width="400" height="300" fill="#F8F8F8"/>
  <rect x="20" y="20" width="360" height="260" rx="8" fill="#FFF" stroke="#E0E0E0" stroke-width="2"/>
  
  <!-- Paint Roller Design -->
  <!-- Handle -->
  <rect x="100" y="140" width="160" height="20" rx="5" fill="#795548"/>
  <rect x="90" y="135" width="20" height="30" rx="5" fill="#5D4037"/>
  
  <!-- Roller Mechanism -->
  <path d="M260 150L280 130L280 170L260 150Z" fill="#5D4037"/>
  <rect x="280" y="130" width="15" height="40" fill="#5D4037"/>
  
  <!-- Roller with Paint -->
  <rect x="295" y="110" width="40" height="80" rx="20" fill="#2196F3"/>
  <rect x="295" y="110" width="40" height="80" rx="20" fill="url(#paint_gradient)" fill-opacity="0.7"/>
  
  <!-- Paint Drips -->
  <path d="M300 190L300 210" stroke="#2196F3" stroke-width="4" stroke-linecap="round"/>
  <path d="M310 190L310 220" stroke="#2196F3" stroke-width="4" stroke-linecap="round"/>
  <path d="M320 190L320 215" stroke="#2196F3" stroke-width="4" stroke-linecap="round"/>
  <path d="M330 190L330 205" stroke="#2196F3" stroke-width="4" stroke-linecap="round"/>
  
  <!-- Paint Tray -->
  <path d="M60 190L180 190L160 210L80 210L60 190Z" fill="#E0E0E0"/>
  <path d="M80 210L160 210L160 220L80 220L80 210Z" fill="#BDBDBD"/>
  <rect x="80" y="210" width="80" height="5" fill="#2196F3"/>
  
  <!-- Color Palette at Bottom -->
  <rect x="40" y="250" width="320" height="20" rx="4" fill="#F5F5F5"/>
  <circle cx="60" cy="260" r="10" fill="#4295F4"/>
  <circle cx="100" cy="260" r="10" fill="#FFC107"/>
  <circle cx="140" cy="260" r="10" fill="#0F9D58"/>
  <circle cx="180" cy="260" r="10" fill="#DB3236"/>
  <rect x="220" y="250" width="120" height="20" rx="10" fill="#E0E0E0"/>
  
  <!-- Gradient Definition -->
  <defs>
    <linearGradient id="paint_gradient" x1="315" y1="110" x2="315" y2="190" gradientUnits="userSpaceOnUse">
      <stop offset="0" stop-color="white" stop-opacity="0.5"/>
      <stop offset="1" stop-color="white" stop-opacity="0"/>
    </linearGradient>
  </defs>
</svg>