<?xml version="1.0" encoding="utf-8" ?>
<svg xmlns="http://www.w3.org/2000/svg" xmlns:xlink="http://www.w3.org/1999/xlink" width="1024" height="1024">
	<path transform="scale(2 2)" d="M431.502 217.211C420.992 210.294 412.225 207.037 402.292 201.318C419.031 202.704 449.377 209.692 455.034 228.404C454.135 231.921 452.263 235.44 450.786 238.754C438.489 266.344 374.723 421.525 339.816 412.253C328.21 409.171 295.361 390.143 289.681 380.212C287.424 376.267 287.267 371.672 288.726 367.426C284.207 360.978 278.166 355.356 272.808 349.593C262.475 338.477 243.502 316.948 231.507 308.136C229.398 308.424 227.284 308.819 225.255 309.473C222.307 313.002 221.783 319.407 220.178 323.704C209.058 353.465 195.605 369.572 171.558 388.348C166.527 392.276 134.108 421.119 131.404 421.477C129.77 421.693 128.651 421.145 127.503 422.604C113.867 439.923 103.61 442.157 87.2684 425.477L68.4046 406.084C63.9894 401.578 59.899 398.011 58.9418 391.456C57.1988 379.519 64.7823 368.053 76.2397 364.586L79.6058 365.441C88.0317 357.437 95.9305 348.743 104.006 340.384L178.717 263.163C184.168 257.536 190.001 252.069 195.197 246.223C183.27 234.135 171.379 220.695 164.401 205.018C143.521 204.697 140.581 181.979 112.506 205.018C115.272 208.824 116.296 212.513 112.089 215.638C108.669 218.179 95.726 225.295 91.9294 226.872C87.7849 228.594 85.4784 227.903 83.1051 223.926C77.5056 214.542 72.5649 204.708 67.3037 195.131L61.2858 184.405C55.7588 174.575 54.7636 172.823 65.0375 167.076C68.388 165.202 80.9208 157.604 83.7637 156.86C89.3085 155.409 92.3527 166.435 94.6688 169.75C99.0135 165.801 105.064 164.395 109.428 160.423C114.947 155.402 116.815 148.257 123.732 143.647C132.39 137.876 142.229 136.306 150.526 129.152C157.052 123.523 159.817 115.438 164.476 108.471C185.631 76.8373 232.003 63.1133 264.807 84.809C268.341 87.1462 271.18 89.2097 272.847 93.1643C270.531 104.816 263.241 100.831 254.374 100.878C216.782 101.077 190.166 114.892 199.365 156.582C201.381 165.719 201.913 172.683 198.732 181.689C205.303 194.705 218.595 203.382 230.858 210.49C244.527 196.093 258.571 182.047 272.483 167.887L342.462 95.6009C348.051 89.8641 353.522 83.6658 359.438 78.2746C362.569 75.422 365.227 76.0916 368.148 78.9816C384.088 94.7527 392.959 114.921 392.913 137.437C392.904 142.204 392.857 153.554 389.543 156.766C386.604 159.615 383.101 155.179 380.275 156.532C378.884 158.583 381.471 167.062 382.027 169.75C376.706 169.512 371.256 169.803 366.251 171.758C366.575 176.261 367.344 180.583 368.573 184.925C363.383 183.473 357.657 183.066 352.494 184.925C352.079 190.409 353.346 194.251 353.89 199.485C348.132 197.681 343.119 198.195 337.287 199.485C337.747 202.814 339.587 209.85 339.548 212.481L339.23 212.891C333.984 213.323 331.415 211.599 323.236 213.049C323.381 217.749 324.285 222.615 326.03 226.989C320.784 225.921 316.109 225.61 310.749 226.047C310.7 231.21 311.411 235.905 313.661 240.571C308.277 239.183 301.344 238.652 296.027 240.571C296.456 245.044 297.336 249.373 297.904 253.812C293.015 252.653 287.121 252.726 282.214 253.812C282.514 258.302 283.082 262.607 283.93 267.026C279.139 266.03 274.287 265.836 269.51 267.026C270.951 275.774 272.426 277.125 276.816 284.724L298.375 322.739C300.073 325.811 301.514 329.09 303.512 331.977C305.91 328.74 307.596 325.036 309.541 321.526C329.862 284.842 355.49 246.36 382.342 214.507C383.761 212.824 397.492 195.037 398.917 205.671C399.608 210.823 394.519 216.648 391.964 220.701C380.043 239.61 325.823 328.388 323.476 346.574L323.236 348.396C320.496 351.058 318.356 359.356 319.234 362.736C321.282 370.621 344.393 385.298 352.494 390.331C385.672 359.513 422.441 269.961 443.995 225.193C439.578 222.922 435.577 220.03 431.502 217.211ZM231.507 283.51C235.812 283.531 240.179 283.701 244.479 283.51L244.479 269.718C249.403 269.758 254.357 269.401 259.269 269.718C259.303 265.437 258.353 261.114 258.037 256.84C262.954 256.427 267.917 255.72 272.847 255.586C272.382 251.574 271.806 247.557 271.406 243.54C276.537 243.073 281.714 242.512 286.87 242.743C286.59 238.882 285.865 235.064 285.394 231.223C290.485 229.395 296.049 229.36 301.337 228.404C301.237 224.679 300.35 220.918 299.906 217.211C304.92 215.58 310.253 215.252 315.454 214.52C314.778 210.838 313.75 206.889 313.661 203.152C317.997 202.017 325.424 201.229 329.94 201.318C329.586 197.147 328.915 193.034 328.439 188.879C333.634 187.92 338.972 187.717 344.131 186.603L342.219 174.845C347.552 173.753 353.135 173.284 358.363 171.758C357.767 168.449 356.804 165.08 356.634 161.721C361.422 160.434 366.485 160.191 371.253 158.889C370.559 155.148 370.169 151.345 369.362 147.629L379.754 144.179C379.809 126.001 376.639 106.697 363.274 93.1643C359.048 97.0367 355.085 101.259 351.095 105.374L101.428 360.384C97.8029 364.144 93.2577 367.875 90.3091 372.172C91.7539 373.614 93.1852 375.074 94.6688 376.476L111.121 393.285C116.591 398.815 122.159 404.232 127.548 409.843C134.585 403.606 141.292 397.06 148.562 391.077C176.116 368.401 195.354 356.675 208.475 319.867C214.129 304.008 212.062 298.358 231.507 294.53L231.507 283.51ZM223.185 87.4978C206.298 89.2725 190.007 96.9723 179.254 110.349C172.637 118.582 169.078 128.596 161.564 136.272C150.474 147.602 140.971 147.33 130.089 155.104C125.834 158.143 123.342 165.483 119.131 169.438C113.58 174.652 106.109 176.806 100.378 181.689C102.958 185.077 104.766 188.952 106.679 192.738C112.236 189.795 118.752 185.103 124.819 183.749C145.817 174.976 155.688 195.372 165.726 191.283C168.63 190.1 182 181.623 184.308 179.477C192.823 171.556 186.08 158.343 184.915 148.821C180.107 109.498 207.721 91.2468 242.517 89.0232C237.36 87.3271 228.715 86.8873 223.185 87.4978ZM80.6988 172.665C78.1623 174.554 75.4548 176.105 72.7241 177.69C74.0679 180.605 90.6385 211.358 91.6849 211.801C94.5707 210.243 97.4426 208.645 100.378 207.181C97.2535 202.522 81.7243 173.263 80.6988 172.665ZM192.401 189.957C186.537 194.009 180.393 197.994 174.086 201.318C183.375 220.547 201.475 239.965 204.171 237.316L223.185 218.269C214.104 213.028 205.621 207.035 199.017 198.767C197.147 196.426 194.563 191.685 192.401 189.957ZM260.255 281.026C258.471 280.918 256.537 280.653 254.781 281.026C254.459 285.19 254.87 289.341 254.781 293.506C250.72 293.483 246.562 293.183 242.517 293.506L242.517 301.004L272.794 332.039L282.068 341.844C284.193 344.097 286.258 346.508 288.726 348.396C290.128 350.496 291.725 352.41 293.218 354.439C295.202 347.902 298.948 342.37 301.337 336.069C298.494 333.036 296.395 329.373 293.963 326.018L273.879 298.495C271.114 294.658 264.154 283.101 260.688 280.897L260.255 281.026ZM76.2397 378.003C72.3502 380.363 69.2447 387.253 71.8895 391.515C74.6206 395.915 97.4413 418.915 102.307 422.889C104.788 424.916 107.236 424.958 110.137 423.635C112.952 421.73 115.002 419.426 116.064 416.121C110.473 409.234 102.637 402.109 96.3177 395.684C92.316 391.616 81.7631 378.357 76.2397 378.003Z"/>
	<path fill="#FECA04" transform="scale(2 2)" d="M174.086 201.318C180.393 197.994 186.537 194.009 192.401 189.957C194.563 191.685 197.147 196.426 199.017 198.767C205.621 207.035 214.104 213.028 223.185 218.269L204.171 237.316C201.475 239.965 183.375 220.547 174.086 201.318Z"/>
	<path fill="#FECA04" transform="scale(2 2)" d="M431.502 217.211C435.577 220.03 439.578 222.922 443.995 225.193C422.441 269.961 385.672 359.513 352.494 390.331C344.393 385.298 321.282 370.621 319.234 362.736C318.356 359.356 320.496 351.058 323.236 348.396C327.351 353.319 340.817 365.23 348.07 363.295C369.235 357.65 400.707 289.503 410.545 266.255L428.745 223.226C429.606 221.199 430.307 219.076 431.502 217.211Z"/>
	<path transform="scale(2 2)" d="M349.991 354.439C336.661 355.439 344.855 342.85 348.376 337.63C369.404 306.453 387.281 272.384 400.346 237.081C401.99 232.637 402.318 228.216 407.434 226.989C410.794 226.528 413.122 228.383 414.753 231.223C414.891 235.598 412.538 239.787 410.99 243.765C404.857 259.529 364.03 348.843 349.991 354.439Z"/>
	<path fill="#FECA04" transform="scale(2 2)" d="M94.6688 376.476C97.0268 373.455 100.14 370.774 102.849 368.057L151.762 318.62C160.262 309.987 194.329 271.675 206.656 273.694C212.921 274.72 225.342 280.741 231.507 283.51L231.507 294.53C212.062 298.358 214.129 304.008 208.475 319.867C195.354 356.675 176.116 368.401 148.562 391.077C141.292 397.06 134.585 403.606 127.548 409.843C122.159 404.232 116.591 398.815 111.121 393.285L94.6688 376.476Z"/>
	<path fill="#FECA04" transform="scale(2 2)" d="M254.781 281.026C256.537 280.653 258.471 280.918 260.255 281.026L260.688 280.897C264.154 283.101 271.114 294.658 273.879 298.495L293.963 326.018C296.395 329.373 298.494 333.036 301.337 336.069C298.948 342.37 295.202 347.902 293.218 354.439C291.725 352.41 290.128 350.496 288.726 348.396C286.258 346.508 284.193 344.097 282.068 341.844L272.794 332.039L242.517 301.004L242.517 293.506C246.562 293.183 250.72 293.483 254.781 293.506C254.87 289.341 254.459 285.19 254.781 281.026Z"/>
	<path fill="#FECA04" transform="scale(2 2)" d="M110.137 423.635C107.236 424.958 104.788 424.916 102.307 422.889C97.4413 418.915 74.6206 395.915 71.8895 391.515C69.2447 387.253 72.3502 380.363 76.2397 378.003C81.7631 378.357 92.316 391.616 96.3177 395.684C102.637 402.109 110.473 409.234 116.064 416.121C115.002 419.426 112.952 421.73 110.137 423.635Z"/>
</svg>
