<?xml version="1.0" encoding="utf-8" ?>
<svg xmlns="http://www.w3.org/2000/svg" xmlns:xlink="http://www.w3.org/1999/xlink" width="1024" height="1024">
	<path transform="scale(2 2)" d="M294.747 101.071C311.415 115.439 328.299 108.077 347.442 101.544L364.546 95.632C378.147 90.8179 417.457 74.8212 426.192 94.4771C423.832 95.9196 420.926 98.2014 418.349 99.1004C395.215 82.4855 326.674 136.256 297.501 110.755C297.293 144.11 305.788 190.449 316.345 221.401C322.439 219.222 328.677 217.85 334.922 216.198C371.337 206.57 411.204 186.216 436.01 157.75C415.952 196.338 357.796 220.391 317.642 226.201C319.56 232.378 323.263 241.327 324.515 247.201C325.228 250.545 323.848 251.394 320.823 252.448C252.086 231.377 140.216 236.563 86.4925 285.096C75.9401 250.587 71.5884 197.941 76.1571 162.361C76.7684 157.601 76.9546 152.055 78.4855 147.49C83.3588 132.958 118.416 123.325 131.616 120.709C178.231 111.472 245.872 117.165 292.103 132.418L292.188 131.632C292.979 124.623 292.141 116.492 292.021 109.368C291.954 105.4 290.631 103.009 294.747 101.071ZM176.625 126C150.122 128.255 119.52 129.165 96.6626 143.925C88.5207 149.183 88.1115 149.578 86.497 159.498C81.7182 188.861 84.8919 231.111 90.7206 261.313C131.147 239.865 163.218 235.65 206.848 231.498C248.581 230.859 276.99 236.146 316.345 244.736C303.966 211.279 296.474 174.941 293.036 139.482C253.098 129.848 217.299 125.832 176.625 126Z"/>
	<path fill="#FECA05" transform="scale(2 2)" d="M426.192 94.4771C431.378 91.9854 440.835 87.0063 446.586 88.9196C469.526 96.551 391.39 140.133 376.535 148.958C367.736 154.185 356.564 159.683 348.84 166.141C376.512 157.757 405.446 141.431 429.747 125.972C432.723 124.078 448.411 112.429 450.532 119.747C453.16 128.818 442.262 136.51 436.441 141.519C413.003 161.692 382.672 181.109 354.509 194.264C350.514 177.001 344.801 159.634 341.128 142.516C343.807 140.655 346.986 139.373 349.926 137.97C368.955 128.889 401.65 112.369 418.349 99.1004C420.926 98.2014 423.832 95.9196 426.192 94.4771Z"/>
	<path fill="#FECA05" transform="scale(2 2)" d="M336.316 204.142C323.894 199.624 317.574 162.939 322.356 153.69C324.123 150.273 327.414 148.18 330.959 147.003C332.656 147.188 335.61 162.52 336.27 165.134L346.134 203.284C342.797 204.706 339.886 205.042 336.316 204.142Z"/>
	<path transform="scale(2 2)" d="M218.232 185.886C217.685 188.839 218.972 196.381 217.251 198.536C216.327 199.693 214.33 199.81 213.53 198.464C212.805 197.243 212.773 158.946 213.557 156.491C214.2 155.792 214.629 155.742 215.519 155.452C222.837 153.748 234.12 158.141 233.306 166.953C232.688 173.633 227.216 179.416 222.377 183.54C225.129 186.369 232.836 193.334 233.865 196.569C234.837 199.627 232.28 200.771 230.167 198.874C226.484 194.209 222.322 190.171 218.232 185.886ZM218.232 159.292C217.975 161.821 218.167 164.499 218.191 167.043L218.232 179.601C220.421 178.256 222.277 176.865 224.07 175.022C231.67 166.055 228.561 162.33 218.232 159.292Z"/>
	<path transform="scale(2 2)" d="M178.014 187.564C178.494 180.286 177.972 172.669 177.701 165.371C177.567 161.768 175.992 157.726 179.548 155.452C184.36 155.491 182.991 163.402 183.083 166.598C183.21 171.024 184.783 197.795 182.02 200.156C178.449 203.206 175.634 194.937 174.673 192.896C171.087 185.283 168.324 176.642 163.939 169.503L163.753 169.204C164.108 175.356 166.65 195.637 165.586 200.623C165.138 201.345 164.48 201.608 163.753 201.984C162.574 202.165 161.714 202.162 161.051 201.001C160.899 200.733 155.321 160.559 160.546 157.918C164.24 156.051 165.365 161.432 166.524 163.598C170.713 171.427 174.319 179.49 178.014 187.564Z"/>
	<path transform="scale(2 2)" d="M198.282 194.264C200.857 194.141 203.4 193.682 205.979 193.598C208.637 193.511 209.573 196.457 207.102 197.814C204.98 198.98 193.692 200.372 191.579 199.448C189.073 198.353 189.788 187.679 189.664 185.248C189.449 181.041 187.158 160.507 189.222 157.816C190.593 156.029 196.11 156.486 198.282 156.458C200.554 156.266 204.623 155.592 206.49 157.251C211.538 161.74 194.255 161.259 193.723 161.256C193.508 168.006 194.242 174.806 194.479 181.554L198.552 180.963C212.661 179.009 208.928 187.141 195.25 185.886C195.414 189.628 193.476 194.839 198.282 194.264Z"/>
	<path transform="scale(2 2)" d="M243.492 194.264C242.984 196.292 240.975 203.479 237.62 199.065C236.203 197.2 240.645 184.257 241.314 181.598C242.758 175.858 244.978 159.014 249.796 156.458C254.946 158.317 256.435 176.917 257.354 182.045C257.66 183.756 262.977 205.547 256.881 200.847C254.676 199.147 254.681 196.756 254.179 194.264C252.322 194.328 250.446 194.27 248.587 194.264L243.492 194.264ZM249.796 169.204C247.591 175.76 246.087 182.813 244.67 189.586C245.982 189.646 247.279 189.741 248.587 189.586C250.191 189.572 251.8 189.532 253.403 189.586C252.208 182.83 250.671 176.001 249.796 169.204Z"/>
	<path transform="scale(2 2)" d="M153.094 197.837C154.587 197.42 158.673 197.095 157.783 199.938C156.795 203.098 142.437 206.445 141.019 205.622C137.705 203.698 137.154 186.042 136.688 182.062C134.084 159.828 130.046 162.982 150.167 159.292C151.677 159.526 153.845 160.797 152.724 162.633C151.301 164.966 143.049 165.467 140.269 166.141C140.875 172.573 140.942 179.663 142.69 185.886C143.843 185.441 156.039 180.222 152.866 186.487C151.514 189.156 145.466 189.959 142.69 190.958C143.163 194.134 143.411 197.335 143.901 200.512C147.033 199.814 150.044 198.826 153.094 197.837Z"/>
	<path transform="scale(2 2)" d="M277.838 201.984C274.31 201.872 268.14 202.952 265.148 202.174C263.078 199.662 264.165 162.216 267.338 159.292C269.6 159.211 271 159.436 271.065 161.968C271.352 173.254 268.477 184.666 269.507 196.739C271.862 196.795 281.224 195.364 279.651 200.18C279.341 201.129 278.663 201.546 277.838 201.984Z"/>
	<path transform="scale(2 2)" d="M127.654 183.54C133.588 185.193 132.023 203.448 129.923 206.454C126.892 210.793 121.101 210.911 117.105 207.798C107.763 200.522 104.648 167.106 119.779 165.097C122.24 164.671 127.085 166.576 125.003 169.679C123.522 171.885 118.813 168.682 116.386 172.924C113.323 178.277 112.959 207.555 125.571 204.142C126.952 199.503 126.18 194.304 125.571 189.586C114.95 191.363 118.213 182.876 127.654 183.54Z"/>
	<path transform="scale(2 2)" d="M421.232 203.284C419.783 201.119 414.28 194.272 414.564 192.066C415.033 188.421 423.088 195.948 423.573 196.375C456.684 225.497 461.67 289.153 439.018 325.207C407.504 375.364 299.841 381.24 246.516 380.477C232.698 380.279 102.271 374.45 109.28 400.508C112.671 413.111 142.7 419.24 153.094 420.597C95.0262 439.421 36.4277 390.18 68.834 327.954C82.8514 301.038 111.521 281.735 139.933 272.853C188.567 257.65 244.892 267.186 294.516 272.733C321.307 275.728 357.56 281.125 383.89 275.704C400.376 272.31 408.149 264.147 408.734 247.597C409.08 237.811 402.394 207.586 414.054 205.815C422.964 208.037 419.171 218.744 418.889 226.053C418.366 239.587 421.85 253.623 415.357 266.249C401.135 293.9 358.138 288.694 332.747 286.786C290.672 283.626 248.916 276.362 206.739 274.703C158.65 272.812 102.744 285.064 78.9684 331.942C61.6132 366.161 71.2895 392.929 105.006 410.043L104.742 409.705C101.734 405.829 99.6584 401.282 100.385 396.264C104.816 365.671 177.305 369.067 198.101 369.065L246.94 369.067C298.372 369.074 372.468 366.241 413.629 336.246C453.923 306.881 447.734 239.464 421.232 203.284Z"/>
	<path fill="#FECA05" transform="scale(2 2)" d="M421.232 203.284C447.734 239.464 453.923 306.881 413.629 336.246C372.468 366.241 298.372 369.074 246.94 369.067L198.101 369.065C177.305 369.067 104.816 365.671 100.385 396.264C99.6584 401.282 101.734 405.829 104.742 409.705L105.006 410.043C71.2895 392.929 61.6132 366.161 78.9684 331.942C102.744 285.064 158.65 272.812 206.739 274.703C248.916 276.362 290.672 283.626 332.747 286.786C358.138 288.694 401.135 293.9 415.357 266.249C421.85 253.623 418.366 239.587 418.889 226.053C419.171 218.744 422.964 208.037 414.054 205.815C415.918 205.714 419.378 203.979 421.232 203.284ZM270.109 294.188C265.964 296.94 268.147 304.223 268.151 309.312C268.158 321.526 267.817 333.825 268.185 346.026C268.285 349.346 267.908 351.78 271.984 351.947C275.355 349.849 274.304 346.669 274.272 343.143C274.149 329.335 274.457 312.041 273.439 298.727C273.259 296.37 272.832 294.441 270.109 294.188ZM203.812 294.997C198.71 296.931 202.097 321.701 202.213 328.132C202.299 332.836 201.238 346.997 203.447 350.935C205.767 355.073 208.486 350.694 208.597 347.887C208.778 343.305 208.196 338.388 208.283 333.686C212.268 337.923 221.134 349.243 226.187 350.772C237.065 350.17 216.1 333.901 213.143 330.208C234.922 315.327 231.423 286.63 207.761 297.853C206.708 296.123 205.885 295.13 203.812 294.997ZM258.203 294.997C254.464 296.644 246.968 336.453 246.24 341.313C243.553 330.799 242.02 319.791 239.881 309.137C239.491 307.194 238.095 293.558 234.213 295.291C229.967 297.187 233.533 306.423 234.171 309.544C235.225 314.533 241.389 351.241 244.149 353.022C250.847 357.344 252.569 338.458 253.249 335.526C256.091 323.274 259.659 310.785 261.517 298.336C261.877 295.927 260.425 295.286 258.203 294.997ZM187.379 295.355C167.345 297.405 172.633 297.22 173.193 317.455C173.354 323.303 172.608 349.397 174.945 352.683C175.318 352.795 201.159 352.673 195.615 346.567C194.292 345.11 190.493 345.425 188.647 345.34C185.827 346.209 182.935 346.384 180.012 346.624C179.661 341.265 179.081 335.557 179.548 330.208C180.618 330.202 195.695 330.105 189.74 325.725C187.049 323.746 181.885 325.223 178.77 325.29L178.744 311.652C178.706 308.343 178.498 305.045 178.77 301.741C182.034 301.208 193.347 301.032 194.696 297.765C194.135 294.862 189.562 294.987 187.379 295.355ZM329.666 295.355C327.323 295.542 316.36 295.921 315.271 297.001C312.791 303.174 314.282 311.464 314.281 317.966L314.283 334.56C314.287 339.353 313.943 344.698 315.055 349.365C320.447 355.533 344.186 349.624 338.857 345.714C336.601 344.059 328.866 345.501 325.809 345.34C323.906 345.761 321.936 346.403 320.008 346.624C320.12 341.853 319.999 337.077 320.008 332.305C322.867 331.827 334.463 330.833 335.897 328.884C336.936 327.472 335.331 326.205 334.006 325.895C330.288 325.023 323.806 326.506 320.008 327.135C319.769 323.716 319.964 320.301 319.995 316.878L320.008 301.741C333.096 300.935 342.955 298.451 337.166 295.796C335.1 294.848 331.892 295.169 329.666 295.355ZM295.842 295.355C277.72 302.314 277.577 360.573 298.774 351.476C309.723 346.776 312.109 333.748 306.339 336.664C303.726 339.7 297.409 349.624 292.553 345.002C283.814 336.682 289.225 308.312 297.501 300.605L297.826 300.828C299.549 302.022 303.184 306.246 305.24 305.948C308.467 305.481 304.359 295.25 295.842 295.355ZM351.686 297.295C340.742 299.289 340.236 312.788 345.955 320.419C350.689 326.735 359.273 331.759 360.268 340.228C360.933 345.893 356.221 350.7 350.796 346.695C349.214 345.527 343.556 338.602 342.263 343.397C340.942 348.295 349.642 353.322 353.448 354.023C361.138 353.981 366.67 347.963 366.279 340.275C365.554 326.016 347.81 320.729 348.566 309.141C349.555 293.994 361.801 308.715 364.006 306.941C367.597 304.053 358.12 295.616 351.686 297.295ZM151.153 297.295C148.153 298.246 145.988 299.689 144.456 302.546C135.62 319.026 164.3 336.359 159.313 345.53C154.373 354.614 145.879 337.384 145.398 337.07C139.756 333.397 137.925 346.106 153.094 354.023C156.835 353.837 160.518 353.063 163.11 350.109C175.588 335.884 140.759 317.417 150.418 304.553C155.565 297.696 159.672 311.16 163.702 310.499C169.882 309.485 162.088 296.167 151.153 297.295Z"/>
	<path transform="scale(2 2)" d="M271.984 351.947C267.908 351.78 268.285 349.346 268.185 346.026C267.817 333.825 268.158 321.526 268.151 309.312C268.147 304.223 265.964 296.94 270.109 294.188C272.832 294.441 273.259 296.37 273.439 298.727C274.457 312.041 274.149 329.335 274.272 343.143C274.304 346.669 275.355 349.849 271.984 351.947Z"/>
	<path transform="scale(2 2)" d="M208.283 333.686C208.196 338.388 208.778 343.305 208.597 347.887C208.486 350.694 205.767 355.073 203.447 350.935C201.238 346.997 202.299 332.836 202.213 328.132C202.097 321.701 198.71 296.931 203.812 294.997C205.885 295.13 206.708 296.123 207.761 297.853C231.423 286.63 234.922 315.327 213.143 330.208C216.1 333.901 237.065 350.17 226.187 350.772C221.134 349.243 212.268 337.923 208.283 333.686ZM214.086 301.741C211.767 302.074 209.861 302.684 207.761 303.717C207.75 311.347 207.172 319.571 208.283 327.135L212.319 323.108C217.016 318.089 230.583 298.398 214.086 301.741Z"/>
	<path transform="scale(2 2)" d="M246.24 341.313C246.968 336.453 254.464 296.644 258.203 294.997C260.425 295.286 261.877 295.927 261.517 298.336C259.659 310.785 256.091 323.274 253.249 335.526C252.569 338.458 250.847 357.344 244.149 353.022C241.389 351.241 235.225 314.533 234.171 309.544C233.533 306.423 229.967 297.187 234.213 295.291C238.095 293.558 239.491 307.194 239.881 309.137C242.02 319.791 243.553 330.799 246.24 341.313Z"/>
	<path transform="scale(2 2)" d="M188.647 345.34C190.493 345.425 194.292 345.11 195.615 346.567C201.159 352.673 175.318 352.795 174.945 352.683C172.608 349.397 173.354 323.303 173.193 317.455C172.633 297.22 167.345 297.405 187.379 295.355C189.562 294.987 194.135 294.862 194.696 297.765C193.347 301.032 182.034 301.208 178.77 301.741C178.498 305.045 178.706 308.343 178.744 311.652L178.77 325.29C181.885 325.223 187.049 323.746 189.74 325.725C195.695 330.105 180.618 330.202 179.548 330.208C179.081 335.557 179.661 341.265 180.012 346.624C182.935 346.384 185.827 346.209 188.647 345.34Z"/>
	<path transform="scale(2 2)" d="M315.055 349.365C313.943 344.698 314.287 339.353 314.283 334.56L314.281 317.966C314.282 311.464 312.791 303.174 315.271 297.001C316.36 295.921 327.323 295.542 329.666 295.355C331.892 295.169 335.1 294.848 337.166 295.796C342.955 298.451 333.096 300.935 320.008 301.741L319.995 316.878C319.964 320.301 319.769 323.716 320.008 327.135C323.806 326.506 330.288 325.023 334.006 325.895C335.331 326.205 336.936 327.472 335.897 328.884C334.463 330.833 322.867 331.827 320.008 332.305C319.999 337.077 320.12 341.853 320.008 346.624C321.936 346.403 323.906 345.761 325.809 345.34C328.866 345.501 336.601 344.059 338.857 345.714C344.186 349.624 320.447 355.533 315.055 349.365Z"/>
	<path transform="scale(2 2)" d="M306.339 336.664C312.109 333.748 309.723 346.776 298.774 351.476C277.577 360.573 277.72 302.314 295.842 295.355C304.359 295.25 308.467 305.481 305.24 305.948C303.184 306.246 299.549 302.022 297.826 300.828L297.501 300.605C289.225 308.312 283.814 336.682 292.553 345.002C297.409 349.624 303.726 339.7 306.339 336.664Z"/>
	<path transform="scale(2 2)" d="M353.448 354.023C349.642 353.322 340.942 348.295 342.263 343.397C343.556 338.602 349.214 345.527 350.796 346.695C356.221 350.7 360.933 345.893 360.268 340.228C359.273 331.759 350.689 326.735 345.955 320.419C340.236 312.788 340.742 299.289 351.686 297.295C358.12 295.616 367.597 304.053 364.006 306.941C361.801 308.715 349.555 293.994 348.566 309.141C347.81 320.729 365.554 326.016 366.279 340.275C366.67 347.963 361.138 353.981 353.448 354.023Z"/>
	<path transform="scale(2 2)" d="M153.094 354.023C137.925 346.106 139.756 333.397 145.398 337.07C145.879 337.384 154.373 354.614 159.313 345.53C164.3 336.359 135.62 319.026 144.456 302.546C145.988 299.689 148.153 298.246 151.153 297.295C162.088 296.167 169.882 309.485 163.702 310.499C159.672 311.16 155.565 297.696 150.418 304.553C140.759 317.417 175.588 335.884 163.11 350.109C160.518 353.063 156.835 353.837 153.094 354.023Z"/>
	<path fill="#FECA05" transform="scale(2 2)" d="M207.761 303.717C209.861 302.684 211.767 302.074 214.086 301.741C230.583 298.398 217.016 318.089 212.319 323.108L208.283 327.135C207.172 319.571 207.75 311.347 207.761 303.717Z"/>
</svg>
