<?xml version="1.0" encoding="utf-8" ?>
<svg xmlns="http://www.w3.org/2000/svg" xmlns:xlink="http://www.w3.org/1999/xlink" width="1024" height="1024">
	<path transform="scale(2 2)" d="M106.409 153.635C107.569 145.34 111.072 130.789 116.405 124.34C119.228 120.926 133.464 120.113 137.793 119.483L164.622 115.471C189.874 111.772 217.839 107.18 243.246 105.105C263.582 103.696 271.092 158.079 260.701 174.652C255.071 183.63 244.712 181.864 235.358 182.728L192.73 186.547C184.146 187.288 175.008 187.437 166.636 189.397C166.823 195.887 167.759 202.504 168.366 208.975L172.197 250.122C173.069 258.762 174.413 267.375 174.78 276.059C203.245 271.252 185.535 298.013 185.89 305.395C186.507 318.242 192.26 341.644 195.303 354.37C199.268 370.955 204.875 382.673 191.678 396.549C178.695 410.201 168.225 406.137 155.53 393.155C149.663 387.155 150.641 381.124 150.745 373.391C150.942 353.76 154.945 334.329 154.045 314.597C153.339 299.121 147.947 301.277 145.167 290.933C142.461 280.863 149.698 278.774 157.805 276.804C155.471 273.92 153.713 270.673 151.591 267.646C136.408 245.997 105.42 244.298 87.7259 219.652C78.9418 207.417 72.045 186.385 74.5815 171.337C76.7011 158.764 81.6416 159.075 91.0856 155.751C99.6331 152.743 96.1863 151.856 106.409 153.635ZM245.867 119.845C240.489 112.437 238.944 121.172 237.75 125.686C238.618 137.04 237.023 143.076 240.452 155.631C242.042 161.455 249.717 178.629 253.35 163.891C256.649 150.51 253.156 131.815 245.867 119.845ZM227.735 125.686C229.15 121.927 229.928 117.97 231.252 114.184C223.26 114.995 220.905 119.206 217.352 125.686C216.148 127.919 212.674 136.576 210.751 137.368C208.612 135.643 210.306 129.552 210.659 127.329C212.271 123.076 213.754 119.46 216.253 115.627C210.477 116.276 204.664 116.864 198.87 117.322C196.028 120.962 193.942 125.364 191.799 129.444L191.659 129.647C188.76 133.914 182.461 147.475 179.417 149.667L178.961 149.655C177.072 146.628 182.459 133.575 183.73 130.615C185.987 126.053 188.26 121.892 191.799 118.18C187.088 118.561 182.48 118.941 177.829 119.845C175.291 123.827 172.714 127.786 170.031 131.673C163.683 138.401 160.99 146.545 152.13 153.635C152.754 146.23 156.727 139.825 160.478 133.588C163.589 129.228 166.657 124.805 170.031 120.643C163.368 121.384 156.428 121.527 149.848 122.748C147.558 127.087 145.578 131.597 143.302 135.958C139.546 141.921 136.462 148.731 131.265 153.635C131.692 147.63 133.293 142.075 135.661 136.558C137.696 132.431 139.533 128.034 142.062 124.186C136.749 124.318 129.72 125.207 124.56 126.334C117.099 135.088 117.179 150.524 120.122 161.319C124.831 183.17 130.546 179.134 146.755 177.844L221.428 171.219C225.999 170.768 230.707 170.509 235.229 169.719C234.042 165.346 231.778 161.316 230.568 156.891C227.029 143.943 228.456 137.708 227.735 125.686ZM178.795 323.881C179.909 317.804 175.813 307.134 177.642 300.717C178.489 297.744 185.421 289.102 183.841 286.776C180.331 285.254 158.413 287.756 155.083 288.952C151.043 290.403 157.368 295.826 158.603 297.548C166.561 308.637 164.88 321.461 164.851 334.365L164.757 372.13C164.736 374.465 164.282 377.12 164.837 379.4C164.792 380.987 164.358 383.231 165.512 384.486C173.092 392.731 179.222 395.896 186.207 386.252C189.309 381.968 185.69 371.732 184.988 366.888L178.795 323.881ZM106.409 164.519C98.5618 166.616 89.1742 164.333 86.4321 165.908C77.7573 170.892 81.8007 189.722 84.0127 197.353C95.8322 238.127 138.102 234.767 157.805 264.508C160.049 268.359 161.996 272.35 162.655 276.804C164.45 276.764 166.291 276.641 168.078 276.804C167.505 269.298 166.519 261.812 165.806 254.315L161.077 200.757C160.724 196.935 160.389 193.236 160.478 189.397C154.412 189.954 148.333 190.42 142.275 191.048C134.529 191.85 127.188 194.377 120.621 188.957C113.815 183.339 107.993 173.59 106.751 164.805C106.642 164.705 106.553 164.554 106.409 164.519Z"/>
	<path fill="#FECA04" transform="scale(2 2)" d="M237.75 125.686C240.518 123.03 241.822 120.78 245.867 119.845C253.156 131.815 256.649 150.51 253.35 163.891C249.717 178.629 242.042 161.455 240.452 155.631C237.023 143.076 238.618 137.04 237.75 125.686ZM243.75 127.329C238.746 132.371 244.065 161.232 248.481 162.809L248.88 162.672C252.852 155.689 250.59 127.659 243.75 127.329Z"/>
	<path fill="#FECA04" transform="scale(2 2)" d="M217.352 125.686C220.8 125.834 224.281 125.659 227.735 125.686C228.456 137.708 227.029 143.943 230.568 156.891C231.778 161.316 234.042 165.346 235.229 169.719C230.707 170.509 225.999 170.768 221.428 171.219L146.755 177.844C130.546 179.134 124.831 183.17 120.122 161.319C123.904 155.805 120.226 140.003 135.661 136.558C133.293 142.075 131.692 147.63 131.265 153.635C136.462 148.731 139.546 141.921 143.302 135.958C149.131 135.6 154.715 133.954 160.478 133.588C156.727 139.825 152.754 146.23 152.13 153.635C160.99 146.545 163.683 138.401 170.031 131.673C174.475 132.036 179.335 131.318 183.73 130.615C182.459 133.575 177.072 146.628 178.961 149.655L179.417 149.667C182.461 147.475 188.76 133.914 191.659 129.647L191.799 129.444C197.087 129.696 205.074 127.859 210.659 127.329C210.306 129.552 208.612 135.643 210.751 137.368C212.674 136.576 216.148 127.919 217.352 125.686Z"/>
	<path transform="scale(2 2)" d="M248.88 162.672L248.481 162.809C244.065 161.232 238.746 132.371 243.75 127.329C250.59 127.659 252.852 155.689 248.88 162.672Z"/>
	<path transform="scale(2 2)" d="M344.154 405.512C324.178 406.038 237.518 404.441 235.355 376.278C234.438 364.332 234.562 352.133 234.267 340.151L231.226 234.346C231.109 228.403 230.418 222.179 230.788 216.263C231.974 197.314 304.675 193.265 325.21 192.549C353.297 192.449 418.398 195.119 435.362 212.303C438.606 215.589 437.673 220.473 437.642 224.66L437.361 274.569C437.344 277.367 437.622 280.156 437.568 282.958L435.319 367.036C435.051 374.312 435.373 379.646 429.893 385.123C413.644 401.363 366.351 405.434 344.154 405.512ZM250.853 234.58C248.45 233.871 246.104 233.1 243.75 232.243C242.865 239.038 243.437 272.085 246.03 275.453C250.05 280.674 257.474 282.399 261.537 288.716C266.774 296.86 261.471 307.811 269.878 316.094C275.775 321.905 286.096 321.053 289.689 313.046C295.236 300.674 291.465 295.078 308.998 290.014C333.876 287.755 327.973 312.629 338.435 319.365C342.896 322.237 352.547 323.005 356.054 318.104C361.054 310.601 358.723 301.329 365.66 292.666C380.084 274.653 404.397 288.555 418.694 272.547C426.603 263.692 428.179 242.292 427.476 230.061C415.11 236.763 401.64 239.185 387.873 241.196C343.891 247.623 294.093 245.951 250.853 234.58ZM325.21 205.16C306.531 206.908 253.01 209.465 243.246 220.123C258.095 228.807 309.91 231.78 326.723 232.202C334.284 232.391 341.89 231.902 349.438 232.243C369.949 230.399 420.243 229.642 431.942 216.882C404.876 204.49 356.657 206.027 325.21 205.16ZM425.422 282.744C406.098 298.72 387.712 290.243 378.513 297.505C367.702 306.041 374.946 323.987 358.593 331.374C344.808 337.6 327.129 331.751 321.863 316.943C320.073 311.909 319.824 303.028 313.004 302.219C303.585 301.101 303.397 312.595 300.737 318.604C291.205 340.145 253.84 336.536 253.556 302.059C253.477 292.492 253.144 291.244 245.264 285.863C245.043 295.918 245.731 305.901 245.867 315.937C246.065 330.355 246.59 344.852 247.155 359.262C247.35 364.238 245.774 373.933 249.536 377.549C259.557 387.178 299.079 391.752 313.61 392.561C341.683 394.124 407.814 393.698 424.122 373.391C423.79 357.46 426.106 284.159 425.422 282.744Z"/>
	<path fill="#FECA04" transform="scale(2 2)" d="M250.853 234.58C294.093 245.951 343.891 247.623 387.873 241.196C401.64 239.185 415.11 236.763 427.476 230.061C428.179 242.292 426.603 263.692 418.694 272.547C404.397 288.555 380.084 274.653 365.66 292.666C358.723 301.329 361.054 310.601 356.054 318.104C353.548 317.736 350.957 318.793 348.299 318.237C337.528 315.985 338.044 303.246 333.224 295.705C328.011 287.549 317.313 284.573 308.998 290.014C291.465 295.078 295.236 300.674 289.689 313.046C284.323 315.707 278.193 315.387 273.773 311.023C269.047 306.356 270.112 300.777 270.038 294.843C269.891 282.996 260.185 281.974 253.685 275.373C249.206 270.824 250.84 262.766 250.839 256.99L250.853 234.58ZM414.69 241.811C403.22 244.375 413.393 258.364 400.237 261.989C396.992 262.883 392.11 262.694 390.208 265.972C387.338 270.917 391.476 274.215 395.885 274.987C421.18 274.781 427.548 242.912 414.69 241.811Z"/>
	<path transform="scale(2 2)" d="M395.885 274.987C391.476 274.215 387.338 270.917 390.208 265.972C392.11 262.694 396.992 262.883 400.237 261.989C413.393 258.364 403.22 244.375 414.69 241.811C427.548 242.912 421.18 274.781 395.885 274.987Z"/>
	<path fill="#FECA04" transform="scale(2 2)" d="M178.795 323.881C177.931 321.19 178.15 316.183 175.292 314.738C174.13 314.151 172.74 314.133 172.375 315.576C171.496 319.058 178.003 361.87 179.07 370.612C179.572 374.726 183.352 388.351 174.395 385.829C170.457 384.721 168.121 381.495 164.837 379.4C164.282 377.12 164.736 374.465 164.757 372.13L164.851 334.365C164.88 321.461 166.561 308.637 158.603 297.548C157.368 295.826 151.043 290.403 155.083 288.952C158.413 287.756 180.331 285.254 183.841 286.776C185.421 289.102 178.489 297.744 177.642 300.717C175.813 307.134 179.909 317.804 178.795 323.881Z"/>
	<path transform="scale(2 2)" d="M296.821 385.989C281.952 385.982 258.566 381.127 253.269 364.743C251.298 358.648 249.201 348.584 256.889 346.25C265.636 347.581 262.542 354.44 264.607 360.741C269.936 377.003 299.27 369.136 301.871 378.544C302.913 382.312 300.315 385.21 296.821 385.989Z"/>
	<path transform="scale(2 2)" d="M317.619 386.748C304.614 389.418 298.936 379.076 307.492 375.535C313.461 375.274 319.549 374.184 321.402 381.236C320.723 383.964 320.096 385.236 317.619 386.748Z"/>
</svg>
