<?xml version="1.0" encoding="utf-8" ?>
<svg xmlns="http://www.w3.org/2000/svg" xmlns:xlink="http://www.w3.org/1999/xlink" width="1024" height="1024">
	<path transform="scale(2 2)" d="M374.479 378.775C363.293 377.776 351.795 379.715 340.811 381.638C340.981 387.467 340.49 393.368 339.845 399.158C336.546 410.825 330.784 420.521 318.095 423.412C291.641 429.439 258.907 432.967 232.291 431.111C222.633 430.438 213.299 428.444 203.601 428.286C181.842 427.934 175.64 408.245 173.284 390.919C168.855 358.356 163.066 325.912 157.186 293.587L150.727 259.894C148.073 246.225 146.361 234.075 140.952 221.238C136.484 210.636 134.527 199.483 132.008 188.318C137.265 180.257 162.104 170.368 171.892 167.533C170.845 164.687 170.094 161.735 169.355 158.798C144.398 162.371 129.218 172.751 113.281 191.485C112.026 192.961 103.609 207.404 101.348 199.008C100.383 195.423 103.105 190.144 104.917 187.171C121.022 160.742 140.627 154.889 167.488 148.242C167.781 128.584 177.335 104.681 193.099 92.9327C199.235 88.3596 206.765 87.3263 213.132 91.8319C221.295 97.6088 221.942 107.559 227.37 115.183C237.586 115.64 252.352 112.483 256.445 101.724C260.322 91.5339 261.748 85.48 273.658 81.1789C288.929 75.6642 325.403 88.2301 339.64 95.0068C351.002 100.415 357.282 108.944 357.387 121.446C357.501 135.065 348.787 142.47 343.303 153.808C360.913 158.866 379.637 161.429 393.485 175.035C379.293 169.679 356.085 165.162 340.811 162.258C340.243 163.916 340.098 165.798 339.845 167.533C347.676 168.157 365.796 174.511 369.529 182.178L368.647 203.322C368.135 216.199 367.28 217.542 364.436 229.549C361.598 241.529 354.31 273.904 354.494 285.693C366.77 292.255 376.322 299.012 386.256 308.872C398.877 321.4 423.576 355.382 406.088 372.644C397.644 380.98 385.24 378.905 374.479 378.775ZM212.625 107.8C210.028 103.815 209.136 100.428 204.148 99.0577C195.831 101.505 189.101 112.435 185.121 119.727C171.508 144.674 180.884 165.922 188.424 190.258C193.591 187.613 198.685 184.155 204.148 182.178C225.337 170.979 265.862 155.219 287.738 166.027L292.679 168.762C299.41 177.621 302.321 182.937 302.457 194.414C314.189 192.004 326.103 189.421 337.705 186.42L337.533 186.076C334.929 180.925 330.55 176.412 329.86 170.482C329.128 166.728 329.406 163.502 329.86 159.749C321.217 160.643 312.795 158.971 304.083 160.925C301.696 161.46 295.357 165.321 293.523 164.32C295.673 151.003 321.911 152.912 332.341 152.485C334.106 149.058 335.766 145.566 337.714 142.238C344.119 131.3 352.836 121.276 342.468 109.443C334.111 100.631 296.916 90.6143 284.382 90.248C270.654 89.8468 270.046 96.5466 266.074 106.545C261.358 118.414 246.859 124.172 235.036 125.447C236.669 126.975 238.402 128.486 240.287 129.695C254.371 144.311 273.893 135.679 289.814 130.904C278.454 150.098 256.5 153.326 238.416 141.245C228.279 134.473 215.006 119.871 212.625 107.8ZM284.534 176.522C268.751 163.064 216.391 185.876 203.142 194.414C208.813 194.253 214.329 195.626 219.962 195.742C237.5 200.258 276.196 198.498 293.523 195.742C292.846 189.975 290.713 178.971 284.534 176.522ZM350.136 245.459C351.504 238.682 352.767 231.824 354.494 225.13C297.796 240.65 212.941 247.491 154.952 229.741C161.593 258.622 167.068 287.511 172.075 316.709L183.393 385.42C185.163 396.736 183.948 407.239 194.992 414.1C200.149 417.304 205.782 416.638 211.56 417.456C241.158 421.647 259.945 421.197 290.294 416.961C302.732 415.225 319.818 415.946 326.22 403.998C330.085 398.158 328.808 390.625 330.984 384.184C321.764 386.691 311.505 391.456 303.335 396.346C310.797 387.845 320.488 379.978 330.984 375.74C331.355 373.595 331.436 371.357 331.653 369.187L332.887 357.866C337.201 319.262 344.038 283.418 350.136 245.459ZM352.431 296.38C351.123 300.247 350.346 305.986 350.136 310.084C346.438 325.401 343.229 355.807 342.468 371.721C356.018 368.666 366.235 368.201 379.781 368.271C381.569 368.28 383.619 368.49 385.381 368.239C397.857 368.397 404.106 364.802 400.711 351.341C394.783 327.831 372.67 308.533 352.431 296.38ZM176.368 176.522C168.838 179.038 157.196 182.769 151.646 188.318C156.381 188.107 160.872 188.732 165.556 189.326L166.002 189.357C169.452 189.611 184.563 192.401 186.752 191.135C186.213 189.189 181.191 183.661 179.755 181.398C179.107 180.378 177.59 176.667 176.368 176.522ZM346.791 179.203C346.71 180.908 346.72 182.576 346.791 184.281L353.197 183.021L353.985 182.644C353.138 181.453 348.3 179.536 346.791 179.203ZM361.301 190.258C349.378 195.345 338.434 197.099 325.851 199.786C315.08 202.086 304.431 204.938 293.513 206.529C253.161 212.407 212.481 205.696 172.409 200.538C162.369 199.246 152.715 198.111 142.869 195.742C144.001 201.38 145.578 206.646 147.817 211.937C149.05 214.754 150.233 217.607 151.646 220.34C161.723 224.288 179.654 225.783 190.348 226.879C232.777 231.226 274.887 230.719 316.999 222.96C331.296 220.326 345.27 216.586 359.442 213.429C359.755 210.081 362.354 191.818 361.505 190.326L361.301 190.258Z"/>
	<path fill="#FECA04" transform="scale(2 2)" d="M204.148 182.178C191.42 162.566 194.019 122.784 212.625 107.8C215.006 119.871 228.279 134.473 238.416 141.245C256.5 153.326 278.454 150.098 289.814 130.904C273.893 135.679 254.371 144.311 240.287 129.695C253.466 129.739 268.383 134.441 277.077 118.488C278.685 115.538 279.948 112.391 281.836 109.601C291.876 94.7556 322.58 102.172 336.422 107.315C338.207 107.979 340.561 109.802 342.468 109.443C352.836 121.276 344.119 131.3 337.714 142.238C335.766 145.566 334.106 149.058 332.341 152.485C321.911 152.912 295.673 151.003 293.523 164.32C292.39 163.902 288.997 165.544 287.738 166.027C265.862 155.219 225.337 170.979 204.148 182.178Z"/>
	<path fill="#FECA04" transform="scale(2 2)" d="M292.679 168.762C304.223 170.318 316.24 168.036 329.86 170.482C330.55 176.412 334.929 180.925 337.533 186.076L337.705 186.42C326.103 189.421 314.189 192.004 302.457 194.414C302.321 182.937 299.41 177.621 292.679 168.762Z"/>
	<path fill="#FECA04" transform="scale(2 2)" d="M284.534 176.522C290.713 178.971 292.846 189.975 293.523 195.742C276.196 198.498 237.5 200.258 219.962 195.742C222.577 194.465 229.452 193.643 232.61 192.944C245.903 189.999 259.013 185.522 271.837 181.022C276.021 179.555 280.208 177.458 284.534 176.522Z"/>
	<path fill="#FECA04" transform="scale(2 2)" d="M322.053 254.05C331.903 252.253 340.753 248.577 350.136 245.459C344.038 283.418 337.201 319.262 332.887 357.866L331.653 369.187C331.436 371.357 331.355 373.595 330.984 375.74C320.488 379.978 310.797 387.845 303.335 396.346C311.505 391.456 321.764 386.691 330.984 384.184C328.808 390.625 330.085 398.158 326.22 403.998C319.564 402.765 287.316 418.209 285.15 404.048C284.462 399.554 286.745 384.057 287.283 378.835C288.198 369.963 300.432 264.053 302.617 261.15C304.423 258.752 308.074 257.844 310.91 257.395C311.089 261.406 310.641 265.399 310.323 269.395L308.916 286.457C306.761 312.18 299.957 368.64 304.41 393.491C305.855 385.71 308.21 378.137 309.506 370.306C314.829 338.146 317.909 302.838 320.674 270.06L321.489 260.167C321.64 258.137 321.657 256.048 322.053 254.05Z"/>
	<path transform="scale(2 2)" d="M310.91 257.395C311.239 255.995 311.409 254.32 312.011 253.024C314.103 248.519 320.714 249.578 322.053 254.05C321.657 256.048 321.64 258.137 321.489 260.167L320.674 270.06C317.909 302.838 314.829 338.146 309.506 370.306C308.21 378.137 305.855 385.71 304.41 393.491C299.957 368.64 306.761 312.18 308.916 286.457L310.323 269.395C310.641 265.399 311.089 261.406 310.91 257.395Z"/>
	<path transform="scale(2 2)" d="M215.838 396.346C211.272 387.277 205.509 333.687 203.923 321.922L198 278.529C197.146 271.995 191.937 255.299 199.714 253.014C207.879 253.014 206.817 263.973 207.487 270.002L209.8 291.559C213.177 323.978 218.203 367.008 216.873 399.158C216.48 398.243 216.172 397.284 215.838 396.346Z"/>
	<path transform="scale(2 2)" d="M264.836 399.158C260.029 363.236 258.218 326.769 256.996 290.557C256.802 284.82 256.541 259.791 257.168 258.399C257.94 256.683 259.513 255.896 261.18 255.267C263.229 255.303 264.313 256.075 265.784 257.395C268.778 261.027 267.244 267.771 267.286 272.213C267.658 311.713 267.528 351.405 265.777 390.856C265.636 394.026 265.718 397.294 265.424 400.44L265.143 400.35L264.836 399.158Z"/>
	<path fill="#FECA04" transform="scale(2 2)" d="M350.136 310.084C364.348 318.806 376.955 331.901 384.564 346.76C388.032 353.532 392.176 362.308 385.381 368.239C383.619 368.49 381.569 368.28 379.781 368.271C366.235 368.201 356.018 368.666 342.468 371.721C343.229 355.807 346.438 325.401 350.136 310.084Z"/>
	<path fill="#FECA04" transform="scale(2 2)" d="M340.811 381.638C351.795 379.715 363.293 377.776 374.479 378.775C361.576 385.256 351.723 391.665 339.845 399.158C340.49 393.368 340.981 387.467 340.811 381.638Z"/>
</svg>
