<?xml version="1.0" encoding="utf-8" ?>
<svg xmlns="http://www.w3.org/2000/svg" xmlns:xlink="http://www.w3.org/1999/xlink" width="1024" height="1024">
	<path transform="scale(2 2)" d="M106.12 193.743C109.794 188.253 113.374 187.185 119.524 188.044C134.413 190.123 149.525 193.225 164.307 196.077C174.822 198.105 185.27 199.785 189.21 211.764C198.024 210.524 204.723 207.811 208.852 217.46C225.492 215.041 242.387 214.556 258.976 211.764C266.043 199.23 274.193 200.28 286.804 199.215C291.242 198.841 295.733 198.153 300.189 198.243C307.854 186.371 312.521 174.433 319.392 163.032C312.605 152.568 308.247 144.637 311.039 131.327C319.025 93.2563 378.169 94.4518 381.073 142.038C392.285 145.249 404.758 152.984 413.825 160.248C424.391 154.643 442.762 153.976 454.045 157.389C513.828 175.474 465.05 296.247 386.81 283.638C382.386 321.76 382.112 330.321 405.693 361.111C408.273 364.48 411.528 367.88 413.459 371.668C427.265 398.745 394.019 420.156 375.494 395.98C356.797 371.58 340.314 342.967 339.544 311.739C339.456 308.147 339.039 304.086 339.511 300.544C331.501 314.865 333.936 331.009 335.549 346.642L338.063 370.08C338.68 375.477 340.079 382.961 339.13 388.182C334.886 411.522 301.312 412.351 295.038 388.92C292.821 380.641 292.379 368.017 291.603 359.364C287.032 308.354 291.684 295.438 310.766 248.991C312.415 244.976 313.845 240.871 315.781 236.979C307.866 238.985 299.347 238.285 291.261 238.584C275.979 239.149 263.372 241.637 258.049 223.352C242.412 226.229 226.252 226.202 210.553 228.672C206.85 238.091 197.766 235.769 189.21 236.979C179.013 250.852 170.763 249.503 154.589 252.636C142.016 255.071 129.38 257.376 116.844 259.982C115.875 260.028 114.892 259.988 113.922 259.982C108.623 258.153 106.43 253.634 106.12 248.24L106.12 242.516L82.573 246.811C78.5295 247.569 65.3895 251.504 62.0444 248.622C57.161 244.416 63.4426 240.344 66.3082 237.566C71.6984 232.34 77.4794 227.273 82.6469 221.851C78.2678 217.049 67.9644 205.74 63.1495 201.956C60.3197 199.732 55.6333 199.816 53.5933 196.585C51.5244 193.309 53.6875 188.441 57.7729 188.929C69.768 190.361 93.3578 196.796 105.452 199.964C105.801 197.923 105.916 195.806 106.12 193.743ZM116.844 211.764C112.956 212.035 105.387 209.644 101.319 208.721L78.1188 203.541C82.345 207.959 90.2406 214.561 93.4973 219.229C97.0949 224.386 84.3173 233.452 80.4755 237.787C88.3174 235.931 96.3198 234.665 104.247 233.217C107.647 232.596 118.046 228.895 119.258 234.437C119.932 237.524 118.071 239.463 115.769 241.014C115.712 242.318 115.664 243.59 115.769 244.894C115.695 246.671 115.745 248.452 115.769 250.23C124.407 248.755 170.848 240.23 174.969 237.374C184.712 230.624 184.158 212.905 172.644 208.285C162.679 204.287 127.35 199.072 115.769 197.201C115.682 198.599 115.762 200.054 115.769 201.457C120.971 203.916 120.899 208.273 116.844 211.764ZM340.574 113.193C326.321 114.632 315.942 127.365 317.407 141.615C318.873 155.865 331.626 166.22 345.873 164.728C360.082 163.24 370.404 150.528 368.942 136.316C367.481 122.104 354.788 111.758 340.574 113.193ZM379.357 153.038C371.069 176.003 344.933 182.972 325.999 168.19C322.617 176.541 312.101 205.458 304.385 208.707C295.974 212.25 273.115 207.79 269.818 215.857C263.391 231.587 287.997 227.17 295.59 226.773C308.933 226.076 313.236 227.327 323.488 216.814C334.882 205.132 340.511 190.793 345.92 175.747C342.294 204.469 334.862 219.861 324.425 245.075C316.385 264.497 303.437 296.515 301.45 316.939C300.648 325.188 303.48 384.518 307.961 390.463C313.422 397.71 327.486 394.855 328.194 386.125C328.517 382.135 326.875 372.816 326.391 368.196L324.283 347.32C321.482 319.944 320.319 297.142 343.136 276.794C346.924 273.415 352.612 273.944 353.159 279.894C353.67 285.448 351.719 292.699 350.873 298.439C352.357 334.917 351.878 339.325 373.605 372.982C377.001 378.242 382.773 388.189 387.099 392.152C395.029 399.417 406.853 392.497 405.475 382.334C404.698 376.603 395.406 366.546 391.767 361.537C366.703 327.033 371.282 308.155 377.347 267.373C381.197 241.485 387.676 222.416 398.691 198.243C390.911 190.569 373.35 179.178 362.677 187.643C368.183 166.578 410.98 193.466 413.825 206.132C411.686 215.342 406.907 228.204 403.774 237.26C401.882 242.727 397.863 248.435 401.309 253.983C404.967 259.871 413.546 259.767 416.704 253.353C418.824 249.048 420.041 243.921 421.618 239.359L428.079 220.369C432.803 206.3 434.698 200.035 424.798 186.847C413.46 171.743 396.645 160.253 379.357 153.038ZM431.741 160.248C426.96 160.979 422.094 161.733 417.43 163.032C420.991 166.769 424.864 170.205 428.405 173.959C451.754 198.713 442.304 214.078 432.819 241.255C430.891 246.78 429.258 252.872 426.637 258.089C419.467 272.362 398.468 272.999 390.788 258.882C390.444 263.777 389.415 268.73 388.625 273.576C390.523 273.931 392.434 274.363 394.372 274.362C465.794 275.732 511.392 155.543 431.741 160.248ZM196.616 220.043C194.516 219.957 192.391 219.789 190.299 220.043C190.63 222.968 190.56 225.745 190.299 228.672C191.999 228.329 193.846 227.601 195.548 227.504C197.656 227.437 199.575 227.129 201.587 226.483C201.394 224.258 201.264 222.265 201.587 220.043C200.23 219.979 197.891 219.592 196.616 220.043Z"/>
	<path fill="#FECA04" transform="scale(2 2)" d="M27.5372 174.138C30.4092 174.217 33.3192 175.002 36.1556 175.461C51.1638 177.885 92.572 186.277 106.12 193.743C105.916 195.806 105.801 197.923 105.452 199.964C93.3578 196.796 69.768 190.361 57.7729 188.929C53.6875 188.441 51.5244 193.309 53.5933 196.585C55.6333 199.816 60.3197 199.732 63.1495 201.956C67.9644 205.74 78.2678 217.049 82.6469 221.851C77.4794 227.273 71.6984 232.34 66.3082 237.566C63.4426 240.344 57.161 244.416 62.0444 248.622C65.3895 251.504 78.5295 247.569 82.573 246.811L106.12 242.516L106.12 248.24C102.913 248.569 99.7048 249.655 96.6026 250.515C77.4546 255.819 57.923 259.625 38.7098 264.694C36.6158 265.277 34.5604 265.839 32.4068 266.166C33.8951 264.663 35.6569 263.386 37.308 262.066C65.6639 235.9 60.29 193.278 27.5372 174.138Z"/>
	<path fill="#FECA04" transform="scale(2 2)" d="M78.1188 203.541L101.319 208.721C105.387 209.644 112.956 212.035 116.844 211.764C123.19 213.126 126.225 211.533 127.588 205C137.381 206.045 147.221 208.18 156.908 209.972C165.709 211.599 177.871 212.171 176.431 224.508C175.177 235.247 165.058 235.428 156.66 237.068L137.896 240.834C130.984 242.193 122.642 244.615 115.769 244.894C115.664 243.59 115.712 242.318 115.769 241.014C118.071 239.463 119.932 237.524 119.258 234.437C118.046 228.895 107.647 232.596 104.247 233.217C96.3198 234.665 88.3174 235.931 80.4755 237.787C84.3173 233.452 97.0949 224.386 93.4973 219.229C90.2406 214.561 82.345 207.959 78.1188 203.541Z"/>
	<path fill="#FECA04" transform="scale(2 2)" d="M190.299 220.043C192.391 219.789 194.516 219.957 196.616 220.043C197.891 219.592 200.23 219.979 201.587 220.043C201.264 222.265 201.394 224.258 201.587 226.483C199.575 227.129 197.656 227.437 195.548 227.504C193.846 227.601 191.999 228.329 190.299 228.672C190.56 225.745 190.63 222.968 190.299 220.043Z"/>
	<path fill="#FECA04" transform="scale(2 2)" d="M32.4068 300.544C35.2304 297.489 43.6301 292.631 47.5352 289.975C62.137 280.046 82.4648 265.142 97.8854 257.025C98.0112 257.027 97.9164 257.017 98.1221 257.186C96.0354 259.777 93.4643 262.115 91.1214 264.483L50.3453 305.088C48.762 306.64 36.0754 319.64 34.6138 319.821L34.3358 319.202C33.2918 313.687 32.3772 306.102 32.4068 300.544Z"/>
	<path fill="#FECA04" transform="scale(2 2)" d="M113.922 259.982C114.892 259.988 115.875 260.028 116.844 259.982C114.586 264.703 111.725 269.168 109.039 273.651L97.2129 293.497C83.664 316.408 66.0869 348.654 49.2304 368.989C45.1346 363.359 41.8663 355.878 39.923 349.268C41.7829 346.581 44.2436 344.104 46.3242 341.558L62.0588 322.325C78.7936 301.683 96.1981 279.784 113.922 259.982Z"/>
</svg>
