<?xml version="1.0" encoding="utf-8" ?>
<svg xmlns="http://www.w3.org/2000/svg" xmlns:xlink="http://www.w3.org/1999/xlink" width="1024" height="1024">
	<path transform="scale(2 2)" d="M171.831 100.709C180.535 92.3276 229.161 81.1694 245.444 77.8185C253.846 76.7496 254.666 90.1642 256.173 96.0348L262.306 119.673C273.6 164.004 284.126 207.26 293.761 251.957L306.655 312.289C311.812 337.27 317.152 362.121 321.676 387.226C320.319 389.181 319.296 390.124 317.093 390.984C311.169 391.96 301.369 390.879 294.879 390.95C279.677 391.116 256.776 393.145 242.131 397.176C237.858 397.899 219.011 403.492 216.636 402.948C211.165 401.697 211.363 392.219 210.564 387.98C200.272 333.394 200.339 277.368 194.307 222.255C190.397 186.534 182.883 151.504 174.282 116.671C173.052 111.689 170.359 105.774 171.831 100.709ZM242.131 90.694C239.076 90.8151 236.744 91.3351 233.874 92.3666C238.707 112.442 234.653 134.77 240.64 156.096C244.095 168.405 251.386 177.914 257.66 188.685C272.88 214.817 267.748 239.059 269.076 267.631C270.693 302.41 279.282 337.274 290.554 370.129C272.74 345.039 259.518 292.11 258.326 262.89C257.629 245.798 259.852 229.089 255.236 212.317C251.603 199.118 243.621 188.672 237.295 176.884C224.926 153.833 225.71 135.467 227.372 110.179C227.74 104.591 228.279 98.7896 227.759 93.2061C222.041 94.8723 216.258 96.2978 210.537 97.9473C209.363 121.509 211.867 130.682 216.253 154.115C220.441 176.49 224.21 202.2 223.583 225.132C218.34 204.564 214.543 183.747 209.571 163.136C204.762 143.205 195.601 122.401 199.385 101.535C196.93 102.359 194.493 103.213 192.062 104.109L183.821 107.255C195.807 152.222 203.875 198.325 208.025 244.667C212.382 293.317 213.4 342.315 222.488 390.443C230.068 388.306 237.706 386.26 245.444 384.78C243.204 379.25 242.058 373.309 240.717 367.508C235.355 344.329 229.677 310.461 230.741 286.214C235.02 300.827 238.007 313.321 241.537 328.225C245.893 346.616 250.733 364.869 256.489 382.872C275.99 379.403 290.647 380.868 308.85 379.569C307.949 370.89 305.763 362.019 303.887 353.501L275.819 221.548C267.212 182.951 257.582 144.406 247.255 106.229C246.301 102.701 244.091 89.3527 242.131 90.694Z"/>
	<path transform="scale(2 2)" d="M402.76 297.006C392.918 308.307 364.147 274.992 357.826 269.028C344.186 256.158 337.4 258.154 322.614 253.1C299.485 245.194 297.527 229.93 295.233 208.586C291.612 174.879 290.81 130.756 294.188 96.8427C294.806 90.6348 293.791 81.8972 300.313 78.7992C303.266 78.2092 310.56 80.0889 313.723 80.6242C340.473 85.1526 367.713 84.5227 394.566 81.2952C412.64 79.1227 408.089 85.8266 407.032 101.9L404.63 137.084C402.071 178.286 401.041 219.61 402.787 260.873L403.801 282.249C404.035 287.064 405.517 292.734 402.76 297.006ZM306.386 90.694C304.558 98.1528 304.504 106.346 304.109 114.003C303.006 135.335 302.692 217.38 311.224 231.308C318.22 242.73 331.013 242.916 342.272 246.639C359.245 252.252 367.197 263.393 379.416 275.012C383.666 279.052 388.715 282.185 392.886 286.214C393.827 273.18 390.731 259.595 391.75 246.102C377.199 240.527 361.498 233.693 355.691 218.055C348.849 196.207 375.076 167.946 392.488 159.923C392.411 144.976 394.659 129.945 394.567 115.418C383.81 129.957 358.926 160.861 340.016 163.606C330.283 165.018 324.294 158.247 323.339 148.967C321.168 127.878 341.742 114.817 342.02 94.7563C334.251 94.3352 326.53 93.7344 318.82 92.6636C314.806 92.106 310.402 90.7824 306.386 90.694ZM395.272 92.3666C381.655 93.8141 367.225 95.6174 353.493 94.7563C352.989 100.615 352.105 106.056 349.784 111.512C345.401 121.821 328.881 142.561 335.848 152.047C348.85 156.849 380.285 115.277 387.098 106.092C389.605 102.711 395.312 96.5374 396.016 92.4992L395.743 92.2907L395.272 92.3666ZM391.124 173.985C377.089 185.164 352.207 209.434 374.634 225.132C379.44 228.772 385.097 231.28 390.603 233.676C390.733 230.14 391.796 175.546 391.438 174.262L391.124 173.985Z"/>
	<path fill="#FECA04" transform="scale(2 2)" d="M392.886 286.214C388.715 282.185 383.666 279.052 379.416 275.012C367.197 263.393 359.245 252.252 342.272 246.639C331.013 242.916 318.22 242.73 311.224 231.308C302.692 217.38 303.006 135.335 304.109 114.003C304.504 106.346 304.558 98.1528 306.386 90.694C310.402 90.7824 314.806 92.106 318.82 92.6636C326.53 93.7344 334.251 94.3352 342.02 94.7563C341.742 114.817 321.168 127.878 323.339 148.967C324.294 158.247 330.283 165.018 340.016 163.606C358.926 160.861 383.81 129.957 394.567 115.418C394.659 129.945 392.411 144.976 392.488 159.923C375.076 167.946 348.849 196.207 355.691 218.055C361.498 233.693 377.199 240.527 391.75 246.102C390.731 259.595 393.827 273.18 392.886 286.214ZM326.566 190.026C320.045 192.914 321.417 207.769 323.37 211.888C324.557 214.39 327.497 214.649 329.913 214.221C335.208 211.978 333.313 206.643 333.349 202.141C333.393 196.746 334.728 188.546 326.566 190.026Z"/>
	<path fill="#FECA04" transform="scale(2 2)" d="M353.493 94.7563C367.225 95.6174 381.655 93.8141 395.272 92.3666L395.743 92.2907L396.016 92.4992C395.312 96.5374 389.605 102.711 387.098 106.092C380.285 115.277 348.85 156.849 335.848 152.047C328.881 142.561 345.401 121.821 349.784 111.512C352.105 106.056 352.989 100.615 353.493 94.7563Z"/>
	<path transform="scale(2 2)" d="M329.913 214.221C327.497 214.649 324.557 214.39 323.37 211.888C321.417 207.769 320.045 192.914 326.566 190.026C334.728 188.546 333.393 196.746 333.349 202.141C333.313 206.643 335.208 211.978 329.913 214.221Z"/>
	<path transform="scale(2 2)" d="M181.31 417.958C179.74 419.204 152.368 430.927 148.36 432.337C143.479 434.054 139.206 428.598 136.853 425.077C125.001 407.337 130.601 384.368 127.814 364.453C126.283 353.512 122.464 343.284 119.131 332.812C106.52 293.186 103.398 254.611 104.53 212.997C104.726 205.808 102.756 192.078 110.524 190.026C118.163 189.514 171.21 197.125 177.524 200.553C180.846 202.357 179.518 210.759 179.552 213.888C180.259 279.668 188.331 338.403 201.335 402.331C203.32 412.092 198.609 411.843 190.609 414.801C187.5 415.95 184.541 417.163 181.31 417.958ZM126.043 203.012C123.061 201.956 119.422 201.893 116.282 201.689C115.861 240.425 114.901 270.407 124.146 309.335C128.342 327.004 135.956 343.968 138.807 361.917C141.817 380.866 136.832 405.055 147.191 420.555C149.562 419.53 151.904 418.359 154.151 417.082C156.637 416.101 159.08 415.052 161.521 413.968C167.288 411.856 172.914 409.246 178.625 406.972C181.566 406.052 184.448 404.958 187.34 403.893L189.508 403.893C188.525 397.042 186.963 390.229 185.631 383.435C174.489 326.595 168.118 266.965 168.202 209.147C163.729 208.374 159.281 207.371 154.768 206.863L154.151 206.863C146.032 205.494 138.005 204.036 129.823 203.012L126.043 203.012Z"/>
	<path fill="#FECA04" transform="scale(2 2)" d="M126.043 203.012C124.609 205.538 127.33 278.574 128.674 292.022C130.808 313.385 139.631 332.297 145.925 352.555C151.679 371.076 154.189 397.241 154.151 417.082C151.904 418.359 149.562 419.53 147.191 420.555C136.832 405.055 141.817 380.866 138.807 361.917C135.956 343.968 128.342 327.004 124.146 309.335C114.901 270.407 115.861 240.425 116.282 201.689C119.422 201.893 123.061 201.956 126.043 203.012Z"/>
	<path fill="#FEFEFE" transform="scale(2 2)" d="M154.151 417.082C154.189 397.241 151.679 371.076 145.925 352.555C139.631 332.297 130.808 313.385 128.674 292.022C127.33 278.574 124.609 205.538 126.043 203.012L129.823 203.012C129.511 207.829 130.541 212.318 131.168 217.051C132.891 230.05 133.681 242.684 134.089 255.779L134.716 271.099C135.766 304.741 139.611 313.326 152.144 344.088C160.984 365.783 166.436 390.681 161.521 413.968C159.08 415.052 156.637 416.101 154.151 417.082Z"/>
	<path fill="#FECA04" transform="scale(2 2)" d="M129.823 203.012C138.005 204.036 146.032 205.494 154.151 206.863C153.541 208.251 154.078 238.545 154.18 242.551C154.517 255.873 155.878 272.952 158.762 285.8C160.669 294.298 166.396 313.475 170.001 321.536C169.725 316.417 168.521 311.191 167.765 306.113C163.946 280.468 161.464 254.659 158.02 228.966C157.036 221.623 156.597 214.059 154.768 206.863C159.281 207.371 163.729 208.374 168.202 209.147C168.118 266.965 174.489 326.595 185.631 383.435C186.963 390.229 188.525 397.042 189.508 403.893L187.34 403.893C186.056 400.126 185.5 396.162 184.533 392.31C178.653 368.864 169.326 348.98 159.804 326.871C156.458 319.101 153.899 310.998 150.387 303.314C153.404 319.185 162.628 339.814 167.929 355.359C172.83 369.735 179.328 391.944 178.625 406.972C172.914 409.246 167.288 411.856 161.521 413.968C166.436 390.681 160.984 365.783 152.144 344.088C139.611 313.326 135.766 304.741 134.716 271.099L134.089 255.779C133.681 242.684 132.891 230.05 131.168 217.051C130.541 212.318 129.511 207.829 129.823 203.012Z"/>
	<path fill="#FEFEFE" transform="scale(2 2)" d="M170.001 321.536C166.396 313.475 160.669 294.298 158.762 285.8C155.878 272.952 154.517 255.873 154.18 242.551C154.078 238.545 153.541 208.251 154.151 206.863L154.768 206.863C156.597 214.059 157.036 221.623 158.02 228.966C161.464 254.659 163.946 280.468 167.765 306.113C168.521 311.191 169.725 316.417 170.001 321.536Z"/>
	<path transform="scale(2 2)" d="M310.794 284.23C309.468 281.069 308.854 277.325 308.074 273.982C367.196 265.29 360.459 313.525 389.921 331.536C394.088 334.083 402.712 334.146 403.463 340.117C404.058 344.857 403.687 350.02 403.798 354.822C404.303 376.694 405.776 398.736 407.94 420.497C409.51 436.289 403.255 433.376 389.901 431.834C363.545 428.791 336.142 429.003 309.944 432.949C297.93 434.759 298.829 432.568 297.357 422.496C296.445 416.248 290.579 395.348 305.256 402.013C306.635 408.44 307.473 414.942 308.85 421.354C323.57 419.042 338.531 418.164 353.418 417.902C359.511 417.795 365.733 418.533 371.78 417.958C357.224 406.465 346.618 396.17 329.913 385.965C329.289 384.561 328.445 375.385 327.838 372.662L328.223 372.556C342.773 376.389 378.972 408.677 389.436 419.598L397.107 420.555C396.967 413.77 396.133 397.41 394.567 390.984C390.29 385.474 371.314 369.56 370.912 363.947C370.609 359.728 375.595 356.96 379.086 359.089C382.405 361.113 390.21 369.503 393.597 372.662C392.995 363.411 392.457 354.192 392.488 344.918C378.66 340.869 368.882 328.733 361.887 316.669C345.843 288.998 344.875 284.705 310.794 284.23Z"/>
	<path fill="#FECA04" transform="scale(2 2)" d="M310.794 284.23C344.875 284.705 345.843 288.998 361.887 316.669C368.882 328.733 378.66 340.869 392.488 344.918C392.457 354.192 392.995 363.411 393.597 372.662C390.21 369.503 382.405 361.113 379.086 359.089C375.595 356.96 370.609 359.728 370.912 363.947C371.314 369.56 390.29 385.474 394.567 390.984C396.133 397.41 396.967 413.77 397.107 420.555L389.436 419.598C378.972 408.677 342.773 376.389 328.223 372.556L327.838 372.662C323.706 342.049 316.122 314.008 310.794 284.23ZM336.881 321.536C333.587 322.463 331.302 324.761 332.305 328.31C333.491 332.505 340.418 348.056 346.488 347.076C350.516 345.545 352.354 342.831 350.635 338.683C348.252 332.932 343.786 321.419 336.881 321.536Z"/>
	<path fill="#FEFEFE" transform="scale(2 2)" d="M187.34 403.893C184.448 404.958 181.566 406.052 178.625 406.972C179.328 391.944 172.83 369.735 167.929 355.359C162.628 339.814 153.404 319.185 150.387 303.314C153.899 310.998 156.458 319.101 159.804 326.871C169.326 348.98 178.653 368.864 184.533 392.31C185.5 396.162 186.056 400.126 187.34 403.893Z"/>
	<path transform="scale(2 2)" d="M346.488 347.076C340.418 348.056 333.491 332.505 332.305 328.31C331.302 324.761 333.587 322.463 336.881 321.536C343.786 321.419 348.252 332.932 350.635 338.683C352.354 342.831 350.516 345.545 346.488 347.076Z"/>
	<path fill="#FECA04" transform="scale(2 2)" d="M329.913 385.965C346.618 396.17 357.224 406.465 371.78 417.958C365.733 418.533 359.511 417.795 353.418 417.902C338.531 418.164 323.57 419.042 308.85 421.354C307.473 414.942 306.635 408.44 305.256 402.013C316.868 401.545 331.236 403.966 329.913 385.965Z"/>
</svg>
